# xmcd
#
# Track frame offsets: 
#        180
#        28280
#        49688
#        72550
#        81911
#        96261
#        111985
#        125507
#        152512
#        178894
#
# Disc length: 2700 seconds
#
# Revision: 2
# Processed by: cddbd v1.4PL0 Copyright (c) Steve Scherf et al.
# Submitted via: ExactAudioCopy v0.90b4
#
DISCID=8d0a8a0a
DTITLE=Silvio Rodríguez - Unicornio
DYEAR=1900
DGENRE=
TTITLE0=Por quien merece amor
TTITLE1=La gaviota
TTITLE2=Son desangrado
TTITLE3=Pioneros
TTITLE4=Hoy mi deber
TTITLE5=La primera mentira
TTITLE6=Canción urgente para Nicaragua
TTITLE7=El sol no da de beber
TTITLE8=La maza
TTITLE9=Unicornio
EXTD=
EXTT0=
EXTT1=
EXTT2=
EXTT3=
EXTT4=
EXTT5=
EXTT6=
EXTT7=
EXTT8=
EXTT9=
PLAYORDER=
